<svg width="32" height="32" viewBox="0 0 32 32" fill="none" xmlns="http://www.w3.org/2000/svg">
<path d="M16.0001 0.82843C7.41005 0.82843 0.444458 7.7928 0.444458 16.384C0.444458 23.257 4.90161 29.0879 11.0824 31.1448C11.8598 31.2888 12.1452 30.8074 12.1452 30.3965C12.1452 30.0256 12.1307 28.8001 12.1241 27.5003C7.79642 28.4413 6.88325 25.665 6.88325 25.665C6.17565 23.8669 5.1561 23.3889 5.1561 23.3889C3.7448 22.4234 5.26248 22.4432 5.26248 22.4432C6.82457 22.553 7.6471 24.0463 7.6471 24.0463C9.03448 26.4244 11.2861 25.7368 12.1738 25.3395C12.3134 24.3339 12.7166 23.6478 13.1614 23.2594C9.70634 22.8659 6.07415 21.5321 6.07415 15.5716C6.07415 13.8734 6.68183 12.4857 7.67699 11.3963C7.51546 11.0045 6.98305 9.42236 7.82766 7.27967C7.82766 7.27967 9.13391 6.86158 12.1066 8.87421C13.3473 8.52944 14.6781 8.35669 16.0001 8.35083C17.3221 8.35669 18.6538 8.52944 19.897 8.87421C22.8661 6.86158 24.1705 7.27967 24.1705 7.27967C25.0172 9.42236 24.4846 11.0045 24.323 11.3963C25.3204 12.4857 25.9239 13.8733 25.9239 15.5716C25.9239 21.5462 22.2849 22.8619 18.8211 23.2469C19.379 23.7297 19.8761 24.6764 19.8761 26.1276C19.8761 28.2089 19.8581 29.8841 19.8581 30.3965C19.8581 30.8104 20.1381 31.2955 20.9267 31.1428C27.104 29.0835 31.5556 23.2547 31.5556 16.384C31.5556 7.7928 24.591 0.82843 16.0001 0.82843Z" fill="white"/>
<path d="M6.27052 22.9878C6.23636 23.065 6.1146 23.0882 6.00395 23.0352C5.8911 22.9845 5.82766 22.8791 5.86426 22.8015C5.89781 22.7219 6.01956 22.6997 6.13217 22.7532C6.24526 22.8038 6.30968 22.9102 6.27052 22.9878ZM7.0357 23.6705C6.96153 23.7393 6.81647 23.7073 6.71802 23.5986C6.61627 23.4902 6.59724 23.3452 6.67251 23.2753C6.749 23.2066 6.88967 23.2387 6.99166 23.3473C7.09341 23.457 7.11318 23.6011 7.03558 23.6706L7.0357 23.6705ZM7.56067 24.544C7.46527 24.6103 7.30935 24.5482 7.21309 24.4098C7.11781 24.2716 7.11781 24.1057 7.21517 24.0392C7.31179 23.9727 7.46527 24.0325 7.56287 24.1697C7.65803 24.3104 7.65803 24.4763 7.56055 24.5441L7.56067 24.544ZM8.44835 25.5558C8.36307 25.6497 8.18153 25.6246 8.04855 25.4962C7.91264 25.3708 7.8747 25.1928 7.96022 25.0987C8.04648 25.0046 8.22911 25.031 8.36307 25.1583C8.49812 25.2835 8.53936 25.4628 8.44847 25.5558H8.44835ZM9.59564 25.8974C9.55818 26.0191 9.38323 26.0745 9.20707 26.0228C9.03114 25.9695 8.91597 25.8267 8.95148 25.7036C8.98808 25.581 9.16376 25.5233 9.34127 25.5787C9.51695 25.6318 9.63236 25.7734 9.59576 25.8974H9.59564ZM10.9015 26.0422C10.9059 26.1705 10.7565 26.2769 10.5715 26.2792C10.3855 26.2832 10.235 26.1794 10.2331 26.0533C10.2331 25.9237 10.3791 25.8183 10.5651 25.8153C10.75 25.8116 10.9015 25.9147 10.9015 26.0422ZM12.1842 25.993C12.2064 26.1182 12.0779 26.2468 11.8942 26.2809C11.7137 26.3139 11.5465 26.2366 11.5235 26.1126C11.501 25.9842 11.6321 25.8558 11.8123 25.8225C11.9962 25.7905 12.1608 25.8658 12.1842 25.993Z" fill="white"/>
</svg>
