<svg width="32" height="12" viewBox="0 0 32 12" fill="none" xmlns="http://www.w3.org/2000/svg">
<path d="M2.79232 3.70802C2.73173 3.70802 2.71658 3.67773 2.74688 3.63228L3.06498 3.2233C3.09527 3.17786 3.17101 3.14756 3.2316 3.14756H8.63926C8.69985 3.14756 8.715 3.19301 8.68471 3.23845L8.4272 3.63228C8.3969 3.67773 8.32117 3.72317 8.27572 3.72317L2.79232 3.70802ZM0.505048 5.10159C0.444458 5.10159 0.42931 5.0713 0.459606 5.02585L0.777703 4.61687C0.807998 4.57143 0.883736 4.54113 0.944326 4.54113H7.85159C7.91218 4.54113 7.94248 4.58658 7.92733 4.63202L7.80615 4.99556C7.791 5.05615 7.73041 5.08644 7.66982 5.08644L0.505048 5.10159ZM4.17075 6.49516C4.11016 6.49516 4.09501 6.44972 4.1253 6.40428L4.33737 6.02559C4.36766 5.98015 4.42825 5.9347 4.48884 5.9347H7.51835C7.57894 5.9347 7.60923 5.98015 7.60923 6.04074L7.57894 6.40428C7.57894 6.46487 7.51835 6.51031 7.4729 6.51031L4.17075 6.49516ZM19.8939 3.43536C18.9396 3.67773 18.2882 3.8595 17.3491 4.10186C17.1219 4.16245 17.1067 4.17759 16.9098 3.95038C16.6826 3.69287 16.516 3.52625 16.1979 3.37478C15.2436 2.9052 14.3196 3.04153 13.4562 3.60199C12.4261 4.26848 11.896 5.25307 11.9111 6.48001C11.9263 7.69182 12.7594 8.69155 13.956 8.85817C14.9861 8.9945 15.8495 8.63096 16.5311 7.85844C16.6674 7.69181 16.7886 7.51005 16.9401 7.29798H14.0166C13.6985 7.29798 13.6228 7.10106 13.7288 6.84355C13.9257 6.37398 14.2893 5.58631 14.5014 5.19248C14.5468 5.10159 14.6528 4.95012 14.88 4.95012H20.3937C20.3634 5.3591 20.3634 5.76808 20.3028 6.17706C20.1362 7.26768 19.7272 8.26742 19.0608 9.14598C17.9701 10.585 16.5463 11.4787 14.7437 11.7211C13.2593 11.918 11.8808 11.6302 10.669 10.7213C9.54811 9.87306 8.91192 8.75214 8.7453 7.35857C8.54838 5.70749 9.0331 4.22304 10.0328 2.92035C11.1083 1.51163 12.5322 0.617929 14.2741 0.299831C15.698 0.0423232 17.0613 0.208946 18.2882 1.04206C19.091 1.57222 19.6667 2.2993 20.0453 3.17786C20.1362 3.31419 20.0756 3.38992 19.8939 3.43536Z" fill="#00ACD7"/>
<path d="M24.9077 11.8119C23.5292 11.7816 22.272 11.3878 21.2117 10.479C20.318 9.70643 19.7575 8.72184 19.5757 7.55548C19.3031 5.84381 19.7727 4.32906 20.8027 2.98093C21.9084 1.52677 23.2414 0.769399 25.044 0.451301C26.589 0.178646 28.0432 0.330121 29.361 1.22382C30.5577 2.04179 31.2999 3.14756 31.4968 4.60172C31.7543 6.64663 31.1636 8.31286 29.7549 9.73672C28.7551 10.7516 27.5282 11.3878 26.1195 11.6756C25.7105 11.7513 25.3015 11.7665 24.9077 11.8119ZM28.5128 5.69234C28.4976 5.49542 28.4976 5.34395 28.4673 5.19247C28.1947 3.69287 26.8162 2.84461 25.3772 3.17785C23.9685 3.49595 23.0597 4.38965 22.7264 5.81352C22.4538 6.99502 23.0294 8.19168 24.12 8.6764C24.9531 9.03994 25.7862 8.9945 26.589 8.58551C27.7857 7.96446 28.437 6.99502 28.5128 5.69234Z" fill="#00ACD7"/>
</svg>
